<svg width="430" height="460" viewBox="0 0 430 460" fill="none" xmlns="http://www.w3.org/2000/svg">
<g clip-path="url(#clip0_303_3043)">
<path d="M355.231 445.131C345.352 445.131 335.922 445.322 327.289 445.668C327.303 445.598 327.311 445.526 327.313 445.455C327.313 442.437 317.026 439.681 300.059 437.577C350.026 434.844 383.52 429.826 383.52 424.087C383.52 415.426 307.259 408.405 213.187 408.405C119.115 408.405 42.8545 415.426 42.8545 424.087C42.8545 425.702 45.5096 427.26 50.435 428.726C21.0885 429.73 0 432.499 0 435.758C0 439.863 33.4751 443.192 74.7687 443.192C87.9873 443.192 100.402 442.85 111.177 442.252C108.575 443.271 107.179 444.345 107.179 445.455C107.179 452.06 156.458 457.414 217.246 457.414C242.503 457.414 265.768 456.489 284.342 454.935C294.29 457.879 322.269 460 355.231 460C396.525 460 430 456.672 430 452.566C430 448.46 396.525 445.131 355.231 445.131Z" fill="#3F3D56"/>
<path d="M61.6371 402.177C65.9412 418.203 80.6836 428.129 80.6836 428.129C80.6836 428.129 88.4477 412.07 84.1436 396.044C79.8396 380.017 65.0972 370.092 65.0972 370.092C65.0972 370.092 57.333 386.15 61.6371 402.177Z" fill="#3F3D56"/>
<path d="M67.9616 398.732C79.772 410.313 81.2146 428.116 81.2146 428.116C81.2146 428.116 63.5087 427.142 51.6982 415.561C39.8878 403.98 38.4453 386.178 38.4453 386.178C38.4453 386.178 56.1512 387.152 67.9616 398.732Z" fill="#6A9DC1"/>
<path d="M216.657 57.8618C216.657 57.8618 218.013 59.4264 215.69 62.4538C213.368 65.4811 215.243 72.0502 219.656 72.2176C224.068 72.3849 226.207 74.2464 225.144 76.6984C224.08 79.1504 222.802 84.9768 227.607 84.0909C232.412 83.205 233.93 85.1318 233.08 86.6128C232.229 88.0938 235.222 83.6676 235.222 83.6676C235.222 83.6676 237.9 87.6858 241.186 84.873C244.473 82.0602 245.779 56.563 239.079 56.1308C232.38 55.6987 216.657 57.8618 216.657 57.8618Z" fill="#2F2E41"/>
<path d="M250.623 179.115L252.149 189.88H259.02L256.73 177.577L250.623 179.115Z" fill="#9F616A"/>
<path d="M259.784 183.344C259.784 183.344 268.944 191.803 266.654 192.572C264.364 193.341 255.967 202.568 254.44 203.337C253.074 204.025 238.409 208.72 240.699 203.337C242.989 197.954 248.333 194.879 248.333 194.879L249.859 185.651L259.784 183.344Z" fill="#F2F2F2"/>
<path opacity="0.1" d="M259.784 183.344C259.784 183.344 268.944 191.803 266.654 192.572C264.364 193.341 255.967 202.568 254.44 203.337C253.074 204.025 238.409 208.72 240.699 203.337C242.989 197.954 248.333 194.879 248.333 194.879L249.859 185.651L259.784 183.344Z" fill="black"/>
<path d="M259.784 171.041L261.31 181.806H268.181L265.891 169.503L259.784 171.041Z" fill="#9F616A"/>
<path d="M231.075 142.464L241.08 109.14C241.08 109.14 224.286 93.7607 235.737 89.1469C247.188 84.5332 250.241 107.602 250.241 107.602L246.424 147.588H231.156L231.075 142.464Z" fill="#FFB8B8"/>
<path d="M254.44 117.983C254.44 117.983 234.71 143.473 237.704 147.26C240.699 151.048 246.043 174.117 246.043 174.117C246.043 174.117 245.279 183.344 248.333 183.344C251.386 183.344 259.02 181.806 259.02 179.499C259.02 177.192 252.15 147.972 252.15 147.972L271.998 121.827L254.44 117.983Z" fill="#6A9DC1"/>
<path d="M255.967 119.521L275.815 108.755C275.815 108.755 289.556 115.676 285.739 121.827C281.922 127.979 264.364 144.127 264.364 144.127C264.364 144.127 269.708 170.272 268.944 171.041C268.181 171.81 259.784 174.886 257.493 174.117C255.203 173.348 242.989 143.358 246.043 141.82C249.096 140.282 259.02 124.134 259.02 124.134L255.967 119.521Z" fill="#6A9DC1"/>
<path d="M201.766 401.728C201.766 401.728 215.507 410.187 217.034 410.187C218.56 410.187 239.172 415.569 230.011 419.414C220.851 423.259 185.735 417.876 186.498 415.569C187.261 413.263 186.498 399.421 188.025 399.421C189.552 399.421 201.766 401.728 201.766 401.728Z" fill="#2F2E41"/>
<path d="M217.034 412.494C217.034 412.494 230.775 420.952 232.301 420.952C233.828 420.952 254.44 426.335 245.279 430.18C236.118 434.024 201.002 428.642 201.766 426.335C202.529 424.028 201.766 410.187 203.293 410.187C204.819 410.187 217.034 412.494 217.034 412.494Z" fill="#2F2E41"/>
<path d="M202.529 249.475C202.529 249.475 204.819 261.009 208.636 269.467C212.453 277.926 207.873 317.912 205.583 324.063C203.293 330.215 181.154 403.266 188.025 404.035C194.895 404.804 208.636 404.035 208.636 404.035L230.775 334.06L226.958 240.247L202.529 249.475Z" fill="#575A88"/>
<path opacity="0.1" d="M202.529 249.475C202.529 249.475 204.819 261.009 208.636 269.467C212.453 277.926 207.873 317.912 205.583 324.063C203.293 330.215 181.154 403.266 188.025 404.035C194.895 404.804 208.636 404.035 208.636 404.035L230.775 334.06L226.958 240.247L202.529 249.475Z" fill="black"/>
<path d="M207.11 250.244C207.11 250.244 210.163 271.005 217.034 275.619C223.904 280.233 221.614 284.847 221.614 284.847L218.56 325.601C218.56 325.601 188.788 399.421 197.949 408.649C207.11 417.876 215.507 414.032 219.324 413.263C223.141 412.494 230.011 396.346 226.194 391.732C222.377 387.118 233.828 359.436 236.882 354.822C239.935 350.208 236.882 344.056 240.699 342.519C244.516 340.981 252.913 330.984 252.913 324.064C252.913 317.143 263.601 243.323 256.73 238.709C249.859 234.095 205.82 248.232 205.82 248.232L207.11 250.244Z" fill="#575A88"/>
<path d="M192.605 142.589C201.88 142.589 209.4 135.015 209.4 125.672C209.4 116.329 201.88 108.755 192.605 108.755C183.33 108.755 175.81 116.329 175.81 125.672C175.81 135.015 183.33 142.589 192.605 142.589Z" fill="#FFB8B8"/>
<path d="M230.775 77.9969C238.364 77.9969 244.516 71.8 244.516 64.1557C244.516 56.5114 238.364 50.3145 230.775 50.3145C223.186 50.3145 217.034 56.5114 217.034 64.1557C217.034 71.8 223.186 77.9969 230.775 77.9969Z" fill="#9F616A"/>
<path d="M204.056 125.672C204.056 125.672 213.217 142.589 217.797 142.589C222.377 142.589 199.476 160.276 199.476 160.276C199.476 160.276 191.842 137.976 190.315 137.207C188.788 136.438 204.056 125.672 204.056 125.672Z" fill="#FFB8B8"/>
<path d="M207.11 141.051C207.11 141.051 187.261 147.972 188.025 150.279C188.788 152.586 182.681 157.969 182.681 160.275C182.681 162.582 181.154 183.344 190.315 200.261C199.476 217.178 213.98 229.482 207.11 237.171C200.239 244.861 189.552 257.933 201.002 257.933C212.453 257.933 230.775 241.016 247.569 247.168C264.364 253.319 260.547 230.251 260.547 230.251C260.547 230.251 262.837 212.565 258.257 207.182C253.676 201.799 237.645 163.351 237.645 158.738C237.645 154.124 222.377 136.438 218.56 136.438C214.743 136.438 207.11 141.051 207.11 141.051Z" fill="#8985A8"/>
<path d="M234.592 72.6143C234.592 72.6143 240.808 84.5196 241.135 86.641C241.462 88.7624 252.15 72.6143 252.15 72.6143L239.935 64.1558L234.592 72.6143Z" fill="#9F616A"/>
<path d="M236.882 81.8417L249.86 68.0005L265.127 74.9211C265.127 74.9211 279.367 106.448 280.263 108.755C281.159 111.062 257.493 121.828 255.203 121.828C252.913 121.828 236.882 97.9898 236.882 97.9898C236.882 97.9898 233.065 86.4555 236.882 81.8417Z" fill="#F2F2F2"/>
<path d="M230.775 100.297V114.138H239.936L236.922 100.297H230.775Z" fill="#9F616A"/>
<path d="M236.001 110.678C234.844 110.662 233.709 111.002 232.748 111.652C231.787 112.303 231.046 113.233 230.624 114.319C230.027 115.944 230.229 117.653 233.065 118.367C239.172 119.905 239.935 118.367 239.935 118.367C239.935 118.367 250.537 116.829 248.29 113.753C246.043 110.678 239.935 110.678 239.935 110.678H236.001Z" fill="#9F616A"/>
<path d="M268.944 177.192C268.944 177.192 278.105 185.651 275.815 186.42C273.525 187.189 265.127 196.416 263.601 197.185C262.235 197.873 247.569 202.568 249.859 197.185C252.15 191.803 257.493 188.727 257.493 188.727L259.02 179.499L268.944 177.192Z" fill="#F2F2F2"/>
<path d="M186.621 112.65C187.672 112.03 188.913 111.258 188.943 110.031C188.916 109.581 188.758 109.148 188.49 108.786C188.222 108.425 187.855 108.15 187.434 107.995C186.587 107.701 185.69 107.579 184.796 107.637C184.453 107.619 184.109 107.654 183.776 107.739C182.906 108.009 182.405 108.898 181.72 109.502C180.726 110.378 179.356 110.636 178.077 110.97C175.934 111.53 173.879 112.388 171.971 113.519C171.594 113.711 171.264 113.984 171.004 114.32C170.704 114.937 170.57 115.624 170.616 116.31C170.444 118.919 168.891 121.19 167.731 123.53C166.572 125.869 165.811 128.784 167.171 131.01C167.711 131.703 168.215 132.424 168.681 133.169C169.645 135.193 168.442 137.685 169.139 139.818C169.45 140.657 169.951 141.413 170.6 142.025C171.941 143.385 173.593 144.393 175.41 144.959C177.145 145.497 179.297 145.856 179.977 147.551C180.268 148.279 180.209 149.135 180.62 149.801C181.129 150.627 182.18 150.893 183.128 151.069C184.193 151.314 185.289 151.394 186.378 151.306C186.922 151.259 187.451 151.1 187.933 150.84C188.415 150.581 188.839 150.225 189.18 149.795C189.488 149.188 189.869 148.621 190.315 148.109C191.421 147.178 193.1 147.913 194.519 147.667C195.094 147.557 195.627 147.285 196.053 146.881C196.48 146.478 196.784 145.96 196.929 145.389C196.968 144.78 197.134 144.187 197.418 143.648C198.299 142.512 200.619 143.314 201.201 141.996C201.579 141.14 200.788 140.235 200.023 139.702C198.775 138.833 197.381 138.164 196.262 137.133C195.143 136.101 194.315 134.557 194.665 133.07C195.191 130.841 198.08 129.613 198.176 127.324C198.231 126.012 197.295 124.861 196.248 124.08C195.2 123.299 193.987 122.738 193.05 121.825C192.366 121.158 191.85 120.32 191.106 119.721C189.76 118.637 187.919 118.506 186.205 118.328C185.286 118.233 181.619 117.806 181.763 116.395C181.883 115.224 185.688 113.201 186.621 112.65Z" fill="#2F2E41"/>
<path d="M236.882 81.0728C236.882 81.0728 228.485 84.1486 228.485 87.9934C228.485 91.8382 224.668 104.141 228.485 104.141C232.301 104.141 239.935 101.19 239.935 101.19L236.882 81.0728Z" fill="#F2F2F2"/>
<path d="M234.592 136.438C234.592 136.438 256.73 128.748 257.493 128.748C258.257 128.748 268.944 122.596 268.181 120.29L265.127 101.066C265.127 101.066 252.913 75.6899 261.31 75.6899C269.708 75.6899 274.288 95.6828 274.288 95.6828C274.288 95.6828 292.609 130.286 282.685 137.976C272.761 145.665 231.538 159.506 229.248 157.199C226.958 154.893 234.592 136.438 234.592 136.438Z" fill="#FFB8B8"/>
<path d="M255.967 86.4555L261.12 91.4574L254.44 97.9899C254.44 97.9899 245.279 94.1451 246.043 96.452C246.806 98.7588 251.386 105.679 254.44 105.679C257.493 105.679 273.386 95.683 273.455 92.6072C273.525 89.5314 263.601 78.7659 261.31 77.9969C259.02 77.228 255.967 86.4555 255.967 86.4555Z" fill="#9F616A"/>
<path d="M246.277 81.0955C246.277 81.0955 257.493 91.0692 259.02 91.0692C260.547 91.0692 263.324 76.084 263.324 76.084C263.324 76.084 254.274 70.1445 250.922 71.7639C247.569 73.3832 246.277 81.0955 246.277 81.0955Z" fill="#F2F2F2"/>
<path d="M207.109 145.665C207.109 145.665 207.11 134.9 230.011 134.9H239.935L235.355 160.276L220.087 164.889L207.109 145.665Z" fill="#8985A8"/>
<path d="M257.135 58.5458C254.891 58.5349 252.649 58.3956 250.42 58.1286C248.67 53.8678 246.44 50.2927 244.029 48.9597C242.317 47.4171 239.677 46.296 237.606 45.4096C232.52 43.2329 224.052 44.5906 223.557 47.0661C213.548 51.8834 216.078 60.3435 216.078 60.3435C217.633 63.6549 221.122 62.1873 224.082 60.6877C224.838 63.0881 226.623 65.1252 229.179 65.2222C234.067 65.4075 236.437 67.4696 235.259 70.186C234.08 72.9024 232.664 79.3568 237.987 78.3754C243.31 77.394 244.993 79.5286 244.05 81.1692C243.108 82.8098 246.424 77.9065 246.424 77.9065C246.424 77.9065 249.39 82.3578 253.031 79.2418C253.399 78.8846 253.661 78.4316 253.789 77.933C255.482 78.667 256.823 78.9456 257.585 78.6025C261.945 76.6371 259.237 72.022 259.237 72.022C259.237 72.022 265.059 71.1224 263.183 71.2715C261.307 71.4206 260.12 68.9713 263.295 64.5566C266.469 60.1419 260.077 58.6459 257.135 58.5458Z" fill="#2F2E41"/>
<path d="M227.602 55.0849L225.429 54.3564L223.26 60.923L225.433 61.6514L227.602 55.0849Z" fill="#6A9DC1"/>
<path d="M92.4529 177.987C62.7529 178.124 38.5783 178.566 38.5783 178.566C38.5783 178.566 67.3136 140.226 92.3451 154.431C117.377 168.636 146.131 178.067 146.131 178.067C146.131 178.067 122.153 177.849 92.4529 177.987Z" fill="#F2F2F2"/>
<path d="M306.169 26.7124C276.469 26.8502 252.295 27.2922 252.295 27.2922C252.295 27.2922 281.03 -11.0482 306.062 3.15669C331.093 17.3615 359.848 26.793 359.848 26.793C359.848 26.793 335.869 26.5744 306.169 26.7124Z" fill="#F2F2F2"/>
<path d="M355.517 188.977C385.217 189.114 409.392 189.556 409.392 189.556C409.392 189.556 380.657 151.216 355.625 165.421C330.594 179.626 301.839 189.057 301.839 189.057C301.839 189.057 325.817 188.839 355.517 188.977Z" fill="#F2F2F2"/>
</g>
<defs>
<clipPath id="clip0_303_3043">
<rect width="430" height="460" fill="white"/>
</clipPath>
</defs>
</svg>
