<svg width="22" height="32" viewBox="0 0 22 32" fill="none" xmlns="http://www.w3.org/2000/svg">
<path d="M4.0885 5.86667H4.56749C4.78417 5.58357 4.93415 5.26248 5.00793 4.92374L5.66449 1.5072C5.68768 1.38373 5.75802 1.27174 5.86302 1.1911C5.96802 1.11046 6.10091 1.06638 6.23812 1.06667H13.6216C13.9055 1.06667 14.1473 1.25227 14.1964 1.50827L14.8553 4.93547C14.9301 5.27787 15.0808 5.59254 15.2911 5.86667H15.7712C16.6392 5.86667 17.4243 6.16534 18.0353 6.6432C18.0813 6.56891 18.1062 6.48531 18.1078 6.4C18.1078 6.25855 18.0462 6.1229 17.9367 6.02288C17.8271 5.92286 17.6785 5.86667 17.5236 5.86667C16.7853 5.86667 16.1451 5.38774 16.0037 4.7392L15.3471 1.3248C15.2771 0.953537 15.0654 0.616875 14.7496 0.37441C14.4338 0.131946 14.0342 -0.000682356 13.6216 2.64015e-06H6.23812C5.38411 2.64015e-06 4.65861 0.556803 4.51258 1.32374L3.85952 4.7264C3.78842 5.04766 3.59796 5.33662 3.32036 5.5444C3.04275 5.75219 2.69505 5.86603 2.33609 5.86667C2.18117 5.86667 2.03259 5.92286 1.92304 6.02288C1.8135 6.1229 1.75195 6.25855 1.75195 6.4C1.75353 6.48531 1.77842 6.56891 1.82439 6.6432C2.45255 6.14464 3.25618 5.86902 4.0885 5.86667ZM15.7712 26.1333H15.2922C15.0755 26.4164 14.9256 26.7375 14.8518 27.0763L14.1952 30.4928C14.172 30.6163 14.1017 30.7283 13.9967 30.8089C13.8917 30.8895 13.7588 30.9336 13.6216 30.9333H6.23812C6.10066 30.9334 5.9676 30.8891 5.86243 30.8083C5.75726 30.7275 5.68674 30.6154 5.66333 30.4917L5.00442 27.0645C4.93154 26.7299 4.78314 26.4127 4.56866 26.1333H3.50436C3.18104 26.1329 2.86138 26.0708 2.56586 25.951C2.27034 25.8312 2.00545 25.6565 1.78817 25.4379C1.76651 25.4897 1.75428 25.5445 1.75195 25.6C1.75195 25.7414 1.8135 25.8771 1.92304 25.9771C2.03259 26.0771 2.18117 26.1333 2.33609 26.1333C3.07444 26.1333 3.71465 26.6123 3.85601 27.2608L4.51258 30.6752C4.65861 31.4432 5.38411 32 6.23812 32H13.6216C14.4756 32 15.2011 31.4432 15.3471 30.6763L16.0002 27.2736C16.0713 26.9523 16.2617 26.6634 16.5394 26.4556C16.817 26.2478 17.1647 26.134 17.5236 26.1333C17.6785 26.1333 17.8271 26.0771 17.9367 25.9771C18.0462 25.8771 18.1078 25.7414 18.1078 25.6C18.1062 25.5147 18.0813 25.4311 18.0353 25.3568C17.4072 25.8554 16.6035 26.131 15.7712 26.1333ZM19.8602 9.6H19.276V10.6667H19.8602V12.8H19.276V13.8667H19.8602C20.5039 13.8667 21.0284 13.3877 21.0284 12.8V10.6667C21.0284 10.0789 20.5039 9.6 19.8602 9.6Z" fill="#8B8B8B"/>
<path d="M15.7717 26.6654H4.08895C1.83419 26.6654 0 24.9907 0 22.932V9.06536C0 7.0067 1.83419 5.33203 4.08895 5.33203H15.7717C18.0264 5.33203 19.8606 7.0067 19.8606 9.06536V22.932C19.8606 24.9907 18.0264 26.6654 15.7717 26.6654ZM4.08895 6.3987C3.31462 6.39954 2.57227 6.68077 2.02474 7.18068C1.47721 7.6806 1.1692 8.35838 1.16827 9.06536V22.932C1.16827 24.4019 2.47907 25.5987 4.08895 25.5987H15.7717C17.3815 25.5987 18.6923 24.4019 18.6923 22.932V9.06536C18.6923 7.5955 17.3815 6.3987 15.7717 6.3987H4.08895Z" fill="#8B8B8B"/>
</svg>
